<svg id="Capa_1" enable-background="new 0 0 511.957 511.957" height="512" viewBox="0 0 511.957 511.957" width="512" xmlns="http://www.w3.org/2000/svg"><g><path d="m476.045 157.234v-16.845c4.819-.204 9.391-.403 13.674-.596 10.05-.451 18.39-6.977 21.248-16.625 2.859-9.65-.585-19.668-8.775-25.525-18.925-13.522-39.66-26.199-61.63-37.68-3.671-1.919-8.201-.498-10.119 3.173-1.918 3.67-.498 8.201 3.173 10.119 21.356 11.161 41.495 23.472 59.855 36.589 4.441 3.176 3.508 7.741 3.116 9.064s-2.094 5.657-7.539 5.902c-35.044 1.571-88.805 3.63-149.698 4.733.541-3.847.839-7.772.839-11.766 0-46.433-37.776-84.209-84.209-84.209s-84.209 37.776-84.209 84.209c0 3.994.299 7.918.839 11.766-60.893-1.103-114.655-3.161-149.698-4.733-5.445-.244-7.147-4.579-7.539-5.902s-1.326-5.887 3.113-9.062c38.579-27.561 120.637-76.42 237.494-94.642 52.726 8.216 103.558 23.383 151.108 45.088 3.765 1.72 8.216.06 9.936-3.708s.06-8.216-3.708-9.936c-49.148-22.433-101.7-38.06-156.197-46.444-.756-.116-1.525-.116-2.281 0-120.534 18.554-205.282 69.013-245.074 97.441-8.188 5.855-11.631 15.873-8.772 25.523 2.858 9.649 11.198 16.174 21.248 16.625 4.285.192 8.861.392 13.684.596v16.844c0 10.75 7.31 19.82 17.219 22.514-1.633 63.526-1.522 127.815.332 191.345-10.078 2.579-17.55 11.736-17.55 22.606v24.776c0 2.857.523 5.603 1.469 8.154-.77.011-1.544.019-2.314.03-12.81.192-24.323 7.872-29.331 19.564-6.31 14.731-6.31 29.669 0 44.401 5.008 11.692 16.521 19.37 29.331 19.563 73.29 1.102 147.095 1.653 220.901 1.653s147.611-.551 220.901-1.653c12.811-.192 24.323-7.872 29.331-19.563 6.309-14.731 6.309-29.669 0-44.401-5.007-11.692-16.52-19.371-29.331-19.563-.767-.011-1.537-.019-2.304-.03.946-2.551 1.469-5.297 1.469-8.154v-24.776c0-10.87-7.475-20.027-17.557-22.606 1.853-63.531 1.965-127.819.332-191.345 9.91-2.694 17.223-11.764 17.223-22.514zm-128.472-12.845v12.844c0 10.752 7.312 19.823 17.223 22.516-1.633 63.525-1.522 127.813.332 191.343-10.08 2.577-17.555 11.735-17.555 22.607v24.776c0 2.356.364 4.658 1.037 6.845-9.79-.061-19.579-.123-29.375-.165.633-2.133.974-4.376.974-6.68v-24.776c0-10.869-7.47-20.024-17.545-22.605 1.777-60.967 1.957-122.674.523-183.623 15.083-10.249 26.66-25.269 32.592-42.864 3.962-.068 7.894-.141 11.794-.218zm96.263 36.177c1.612 63.015 1.5 126.781-.333 189.801h-63.391c-1.833-63.02-1.945-126.786-.333-189.801zm-233.802 244.527c-2.05-1.56-3.288-3.977-3.288-6.618v-24.776c0-4.595 3.739-8.334 8.335-8.334h81.796c4.596 0 8.335 3.739 8.335 8.334v24.776c0 2.641-1.237 5.059-3.288 6.618-30.626-.094-61.265-.094-91.89 0zm45.945-223.107c11.468 0 22.404-2.312 32.378-6.482 1.236 58.092 1.011 116.811-.676 174.863h-63.393c-1.688-58.058-1.912-116.775-.676-174.859 9.969 4.167 20.902 6.478 32.367 6.478zm0-153.419c38.163 0 69.21 31.048 69.21 69.21s-31.048 69.21-69.21 69.21-69.21-31.048-69.21-69.21 31.047-69.21 69.21-69.21zm-47.199 138.911c-1.434 60.939-1.254 122.643.523 183.614-10.08 2.577-17.555 11.735-17.555 22.607v24.776c0 2.304.341 4.547.974 6.68-9.796.042-19.585.103-29.375.165.674-2.187 1.037-4.488 1.037-6.845v-24.776c0-10.866-7.466-20.019-17.537-22.603.256-8.78.476-17.43.652-25.79.087-4.141-3.199-7.568-7.339-7.656-4.151-.068-7.568 3.199-7.656 7.34-.173 8.227-.389 16.737-.64 25.377h-63.407c-1.833-63.02-1.945-126.786-.333-189.801h64.064c1.146 44.904 1.435 90.12.835 134.524-.056 4.142 3.256 7.544 7.397 7.6h.104c4.094 0 7.441-3.291 7.497-7.398.604-44.742.311-90.305-.85-135.547 9.906-2.695 17.214-11.764 17.214-22.513v-12.844c3.901.077 7.833.15 11.794.218 5.932 17.601 17.513 32.623 32.601 42.872zm-157.859-46.474c27.452 1.089 61.24 2.232 98.465 3.069v13.161c0 4.595-3.739 8.334-8.334 8.334h-81.797c-4.596 0-8.335-3.739-8.335-8.334v-16.23zm0 277.471v-24.776c0-4.595 3.739-8.334 8.335-8.334h81.796c4.595 0 8.334 3.739 8.334 8.334v24.776c0 2.814-1.431 5.412-3.727 6.944-29.754.222-59.446.557-89.082.959-3.365-1.129-5.656-4.28-5.656-7.903zm441.502 33.653c4.697 10.966 4.697 21.626 0 32.592-2.68 6.258-8.87 10.367-15.769 10.471-146.43 2.201-294.921 2.201-441.35 0-6.899-.104-13.089-4.214-15.769-10.471-4.697-10.966-4.697-21.626 0-32.591 2.68-6.258 8.871-10.368 15.77-10.472 73.215-1.1 146.945-1.65 220.675-1.65s147.46.55 220.675 1.65c6.898.103 13.088 4.213 15.768 10.471zm-31.377-58.429v24.776c0 3.623-2.295 6.775-5.663 7.902-29.637-.401-59.33-.737-89.085-.959-2.296-1.532-3.727-4.13-3.727-6.944v-24.776c0-4.595 3.739-8.334 8.334-8.334h81.796c4.602.001 8.345 3.74 8.345 8.335zm-8.344-228.131h-81.796c-4.595 0-8.334-3.739-8.334-8.334v-13.161c37.23-.836 71.021-1.98 98.475-3.069v16.23c-.001 4.595-3.744 8.334-8.345 8.334z"/><path d="m227.871 156.17c7.84 4.224 13.303 5.632 20.03 6.053v3.573c0 2.071.839 3.946 2.196 5.303s3.232 2.197 5.303 2.196c4.142 0 7.499-3.357 7.499-7.499v-4.146c14.55-2.839 23.414-13.559 24.892-24.135 1.75-12.521-6.233-23.263-20.336-27.368-1.499-.437-3.027-.89-4.556-1.359v-20.702c4.078.989 6.482 2.645 6.658 2.77 3.376 2.398 8.058 1.606 10.457-1.771 2.398-3.376 1.606-8.058-1.77-10.456-1.441-1.023-6.931-4.563-15.344-5.83v-3.042c0-4.142-3.357-7.499-7.499-7.499s-7.499 3.357-7.499 7.499v3.515c-.59.122-1.184.255-1.787.405-10.097 2.505-17.642 10.249-19.222 19.73-1.355 8.13 1.975 15.875 8.691 20.214 3.192 2.062 7.093 3.956 12.318 5.928v27.641c-4.411-.378-7.735-1.433-12.917-4.225-3.646-1.965-8.195-.601-10.159 3.045-1.609 2.986-.986 6.577 1.296 8.859.504.505 1.089.946 1.749 1.301zm35.392-31.623c6.838 1.991 10.364 5.961 9.675 10.892-.585 4.181-4.16 8.557-10.038 10.661v-21.661c.123.037.239.072.363.108zm-19.542-23.523c-2.27-1.466-2.251-3.856-2.035-5.149.415-2.49 2.273-5.48 6.215-7.055v14.475c-1.553-.733-2.97-1.49-4.18-2.271z"/></g></svg>