<svg height='100px' width='100px'  fill="#000000" xmlns="http://www.w3.org/2000/svg" xmlns:xlink="http://www.w3.org/1999/xlink" xml:space="preserve" version="1.1" style="shape-rendering:geometricPrecision;text-rendering:geometricPrecision;image-rendering:optimizeQuality;" viewBox="0 0 215 267" x="0px" y="0px" fill-rule="evenodd" clip-rule="evenodd"><defs><style type="text/css">
   
    .fil0 {fill:#000000}
   
  </style></defs><g><path class="fil0" d="M107 156c27,0 49,-22 49,-49 0,-26 -22,-48 -49,-48 -26,0 -48,22 -48,48 0,27 22,49 48,49zm0 -19c-16,0 -29,-14 -29,-30 0,-16 13,-29 29,-29 16,0 30,13 30,29 0,16 -14,30 -30,30z"></path><path class="fil0" d="M112 265c22,-26 86,-91 96,-120 26,-70 -26,-145 -100,-145 -75,0 -128,75 -101,145 12,32 71,92 96,120 2,3 6,3 9,0zm-87 -127c-22,-57 22,-119 83,-119 60,0 103,62 82,119 -9,26 -62,80 -83,103 -23,-25 -70,-73 -82,-103z"></path></g></svg>