<?xml version="1.0" encoding="UTF-8" standalone="no" ?>
<!DOCTYPE svg PUBLIC "-//W3C//DTD SVG 1.1//EN" "http://www.w3.org/Graphics/SVG/1.1/DTD/svg11.dtd">
<svg xmlns="http://www.w3.org/2000/svg" xmlns:xlink="http://www.w3.org/1999/xlink" version="1.1" width="1280" height="1024" viewBox="0 0 1280 1024" xml:space="preserve">
<desc>Created with Fabric.js 3.1.0</desc>
<defs>
</defs>
<g transform="matrix(1.9692780337941629 0 0 1.9692780337941629 640.0153846153846 512.012312418764)" id="background-logo"  >
<rect style="stroke: none; stroke-width: 1; stroke-dasharray: none; stroke-linecap: butt; stroke-dashoffset: 0; stroke-linejoin: miter; stroke-miterlimit: 4; fill: rgb(84,84,85); fill-rule: nonzero; opacity: 1;"  paint-order="stroke"  x="-325" y="-260" rx="0" ry="0" width="650" height="520" />
</g>
<g transform="matrix(1.9692780337941629 0 0 1.9692780337941629 640.1884656925736 743.5801972921093)" id="text-logo-path"  >
<path style="stroke: none; stroke-width: 1; stroke-dasharray: none; stroke-linecap: butt; stroke-dashoffset: 0; stroke-linejoin: miter; stroke-miterlimit: 10; fill: rgb(79,196,183); fill-rule: nonzero; opacity: 1;"  paint-order="stroke"  transform=" translate(-130.85500000000002, 19.404999999999998)" d="M 4.16 -12.44 Q 2.52 -16.32 2.52 -20.51 Q 2.52 -24.7 4.16 -28.55 Q 5.8 -32.4 8.61 -35.26 Q 11.43 -38.12 15.44 -39.81 Q 19.45 -41.51 23.94 -41.51 Q 28.42 -41.51 32.43 -39.81 Q 36.45 -38.12 39.27 -35.26 Q 42.1 -32.4 43.75 -28.55 Q 45.41 -24.7 45.41 -20.51 L 45.41 -20.51 Q 45.41 -16.73 44.11 -13.24 Q 42.8 -9.76 40.37 -6.97 L 40.37 -6.97 L 43.21 -3.66 L 36.53 2.7 L 32.93 -1.32 Q 28.54 0.73 23.94 0.73 L 23.94 0.73 Q 19.45 0.73 15.44 -1.01 Q 11.43 -2.75 8.61 -5.65 Q 5.8 -8.55 4.16 -12.44 Z M 12.36 -20.51 L 12.36 -20.51 Q 12.36 -15.59 15.72 -12 Q 19.07 -8.41 23.94 -8.41 L 23.94 -8.41 Q 25.08 -8.41 26.4 -8.7 L 26.4 -8.7 L 20.71 -15.12 L 27.6 -21.53 L 33.84 -14.27 Q 35.51 -16.93 35.51 -20.51 L 35.51 -20.51 Q 35.51 -25.61 32.21 -29 Q 28.92 -32.4 23.94 -32.4 L 23.94 -32.4 Q 18.98 -32.4 15.67 -28.99 Q 12.36 -25.58 12.36 -20.51 Z M 50.33 -20.95 L 50.33 -20.95 L 50.33 -40.81 L 60.18 -40.81 L 60.18 -20.95 Q 60.18 -15 62.67 -11.7 Q 65.16 -8.41 69.79 -8.41 L 69.79 -8.41 Q 74.38 -8.41 77.07 -11.75 Q 79.75 -15.09 79.75 -20.95 L 79.75 -20.95 L 79.75 -40.81 L 89.71 -40.81 L 89.71 -20.95 Q 89.71 -15.97 88.2 -11.87 Q 86.69 -7.76 84.02 -5.02 Q 81.36 -2.29 77.71 -0.78 Q 74.06 0.73 69.79 0.73 L 69.79 0.73 Q 61 0.73 55.66 -5.1 Q 50.33 -10.93 50.33 -20.95 Z M 128.03 0 L 96.77 0 L 96.77 -40.81 L 128.03 -40.81 L 128.03 -31.67 L 106.61 -31.67 L 106.61 -24.67 L 124.48 -24.67 L 124.48 -16.14 L 106.61 -16.14 L 106.61 -9.11 L 128.03 -9.11 L 128.03 0 Z M 133.95 -20.95 L 133.95 -20.95 L 133.95 -40.81 L 143.79 -40.81 L 143.79 -20.95 Q 143.79 -15 146.28 -11.7 Q 148.77 -8.41 153.4 -8.41 L 153.4 -8.41 Q 158 -8.41 160.68 -11.75 Q 163.36 -15.09 163.36 -20.95 L 163.36 -20.95 L 163.36 -40.81 L 173.32 -40.81 L 173.32 -20.95 Q 173.32 -15.97 171.81 -11.87 Q 170.3 -7.76 167.64 -5.02 Q 164.97 -2.29 161.32 -0.78 Q 157.68 0.73 153.4 0.73 L 153.4 0.73 Q 144.61 0.73 139.28 -5.1 Q 133.95 -10.93 133.95 -20.95 Z M 211.64 0 L 180.38 0 L 180.38 -40.81 L 211.64 -40.81 L 211.64 -31.67 L 190.22 -31.67 L 190.22 -24.67 L 208.1 -24.67 L 208.1 -16.14 L 190.22 -16.14 L 190.22 -9.11 L 211.64 -9.11 L 211.64 0 Z M 237.66 0 L 219.61 0 L 219.61 -40.75 L 237.66 -40.81 Q 237.74 -40.81 237.83 -40.81 L 237.83 -40.81 Q 242.67 -40.84 246.68 -39.32 L 246.68 -39.32 Q 250.75 -37.79 253.48 -35.07 Q 256.2 -32.34 257.7 -28.59 Q 259.19 -24.84 259.19 -20.45 L 259.19 -20.45 Q 259.19 -14.56 256.48 -9.9 Q 253.77 -5.24 248.85 -2.62 Q 243.93 0 237.66 0 L 237.66 0 Z M 229.45 -31.67 L 229.45 -9.11 L 237.66 -9.11 Q 242.81 -9.11 246.02 -12.23 Q 249.23 -15.35 249.23 -20.45 L 249.23 -20.45 Q 249.23 -25.84 246.11 -28.75 Q 242.99 -31.67 237.66 -31.67 L 237.66 -31.67 L 229.45 -31.67 Z" stroke-linecap="round" />
</g>
<g transform="matrix(1.9692780337941629 0 0 1.9692780337941629 638.7951630212026 401.3950396543037)" id="tagline-83fdfb2a-8044-4ad8-b129-1c6be14b1c43-logo-path"  >
<linearGradient id="SVGID_38060" gradientUnits="userSpaceOnUse" gradientTransform="matrix(1 0 0 1 7.709999999999994 -237.94)"  x1="0" y1="0" x2="0" y2="320">
<stop offset="0%" style="stop-color:rgb(66,230,149);stop-opacity: 1"/>
<stop offset="100%" style="stop-color:rgb(59,178,184);stop-opacity: 1"/>
</linearGradient>
<path style="stroke: none; stroke-width: 1; stroke-dasharray: none; stroke-linecap: butt; stroke-dashoffset: 0; stroke-linejoin: miter; stroke-miterlimit: 4; fill: url(#SVGID_38060); fill-rule: nonzero; opacity: 1;"  paint-order="stroke"  transform=" translate(-131.635, 102.93)" d="M 17.56 -65.89 Q 7.71 -88.81 7.71 -114.01 Q 7.71 -139.21 17.56 -162.14 Q 27.4 -185.06 43.99 -201.65 Q 60.59 -218.25 83.51 -228.09 Q 106.44 -237.94 131.64 -237.94 Q 156.83 -237.94 179.76 -228.09 Q 202.69 -218.25 219.28 -201.65 Q 235.87 -185.06 245.72 -162.14 Q 255.56 -139.21 255.56 -114.01 Q 255.56 -88.81 245.72 -65.89 Q 235.87 -42.96 219.28 -26.37 Q 202.69 -9.78 179.76 0.07 Q 156.83 9.91 131.64 9.91 Q 106.44 9.91 83.51 0.07 Q 60.59 -9.78 43.99 -26.37 Q 27.4 -42.96 17.56 -65.89 Z M 26.64 -158.28 Q 17.63 -137.14 17.63 -114.01 Q 17.63 -90.88 26.64 -69.74 Q 35.66 -48.61 50.95 -33.32 Q 66.23 -18.04 87.37 -9.02 Q 108.5 0 131.64 0 Q 154.77 0 175.91 -9.02 Q 197.04 -18.04 212.33 -33.32 Q 227.61 -48.61 236.63 -69.74 Q 245.65 -90.88 245.65 -114.01 Q 245.65 -137.14 236.63 -158.28 Q 227.61 -179.42 212.33 -194.7 Q 197.04 -209.99 175.91 -219 Q 154.77 -228.02 131.64 -228.02 Q 108.5 -228.02 87.37 -219 Q 66.23 -209.99 50.95 -194.7 Q 35.66 -179.42 26.64 -158.28 Z M 41.52 -61.83 Q 27.54 -85.78 27.54 -114.01 Q 27.54 -142.24 41.52 -166.2 Q 55.49 -190.16 79.45 -204.13 Q 103.41 -218.11 131.64 -218.11 Q 159.86 -218.11 183.82 -204.13 Q 207.78 -190.16 221.76 -166.2 Q 235.73 -142.24 235.73 -114.01 Q 235.73 -85.78 221.76 -61.83 Q 207.78 -37.87 183.82 -23.89 Q 159.86 -9.91 131.64 -9.91 Q 103.41 -9.91 79.45 -23.89 Q 55.49 -37.87 41.52 -61.83 Z M 44.89 -150.64 Q 37.45 -133.15 37.45 -114.01 Q 37.45 -94.87 44.89 -77.38 Q 52.32 -59.9 64.92 -47.3 Q 77.52 -34.7 95.01 -27.26 Q 112.5 -19.83 131.64 -19.83 Q 150.78 -19.83 168.26 -27.26 Q 185.75 -34.7 198.35 -47.3 Q 210.95 -59.9 218.38 -77.38 Q 225.82 -94.87 225.82 -114.01 Q 225.82 -133.15 218.38 -150.64 Q 210.95 -168.13 198.35 -180.73 Q 185.75 -193.32 168.26 -200.76 Q 150.78 -208.2 131.64 -208.2 Q 112.5 -208.2 95.01 -200.76 Q 77.52 -193.32 64.92 -180.73 Q 52.32 -168.13 44.89 -150.64 Z M 58.66 -71.74 Q 47.37 -91.15 47.37 -114.01 Q 47.37 -136.87 58.66 -156.28 Q 69.95 -175.7 89.36 -186.99 Q 108.78 -198.28 131.64 -198.28 Q 154.49 -198.28 173.91 -186.99 Q 193.32 -175.7 204.62 -156.28 Q 215.91 -136.87 215.91 -114.01 Q 215.91 -91.15 204.62 -71.74 Q 193.32 -52.32 173.91 -41.03 Q 154.49 -29.74 131.64 -29.74 Q 108.78 -29.74 89.36 -41.03 Q 69.95 -52.32 58.66 -71.74 Z M 67.26 -151.33 Q 57.28 -134.25 57.28 -114.01 Q 57.28 -93.77 67.26 -76.7 Q 77.25 -59.62 94.32 -49.64 Q 111.4 -39.66 131.64 -39.66 Q 151.88 -39.66 168.95 -49.64 Q 186.03 -59.62 196.01 -76.7 Q 205.99 -93.77 205.99 -114.01 Q 205.99 -134.25 196.01 -151.33 Q 186.03 -168.4 168.95 -178.38 Q 151.88 -188.37 131.64 -188.37 Q 111.4 -188.37 94.32 -178.38 Q 77.25 -168.4 67.26 -151.33 Z M 72.29 -89.02 Q 67.2 -100.93 67.2 -114.01 Q 67.2 -127.09 72.29 -139 Q 77.38 -150.91 86.06 -159.59 Q 94.73 -168.26 106.65 -173.36 Q 118.56 -178.45 131.64 -178.45 Q 144.72 -178.45 156.63 -173.36 Q 168.54 -168.26 177.21 -159.59 Q 185.89 -150.91 190.98 -139 Q 196.08 -127.09 196.08 -114.01 Q 196.08 -100.93 190.98 -89.02 Q 185.89 -77.11 177.21 -68.43 Q 168.54 -59.76 156.63 -54.67 Q 144.72 -49.57 131.64 -49.57 Q 118.56 -49.57 106.65 -54.67 Q 94.73 -59.76 86.06 -68.43 Q 77.38 -77.11 72.29 -89.02 Z M 93.08 -152.57 Q 77.11 -136.59 77.11 -114.01 Q 77.11 -91.43 93.08 -75.46 Q 109.05 -59.48 131.64 -59.48 Q 154.22 -59.48 170.19 -75.46 Q 186.16 -91.43 186.16 -114.01 Q 186.16 -136.59 170.19 -152.57 Q 154.22 -168.54 131.64 -168.54 Q 109.05 -168.54 93.08 -152.57 Z M 134.25 -64.85 L 123.24 -82.62 L 131.64 -87.85 L 144.44 -67.33 L 134.25 -64.85 Z M 153.81 -71.33 L 140.31 -92.94 L 148.71 -98.18 L 162.07 -76.56 L 153.81 -71.33 Z M 169.64 -83.17 L 157.25 -103.13 L 165.51 -108.78 L 175.7 -92.26 L 169.64 -83.17 Z M 194.43 32.08 L 178.73 6.61 L 187.95 2.62 L 202.83 26.71 L 194.43 32.08 Z M 211.09 21.48 L 196.77 -1.93 L 205.17 -7.16 L 219.49 16.11 L 211.09 21.48 Z M 227.89 10.74 L 213.29 -12.81 L 220.86 -19.55 L 236.29 5.37 L 227.89 10.74 Z" stroke-linecap="round" />
</g>
</svg>