<svg height="512pt" viewBox="0 0 512 512.00014" width="512pt" xmlns="http://www.w3.org/2000/svg"><path d="m42.667969 204.800781c-4.714844 0-8.535157 3.820313-8.535157 8.53125v204.800781c0 4.714844 3.820313 8.535157 8.535157 8.535157 4.710937 0 8.53125-3.820313 8.53125-8.535157v-204.800781c0-4.710937-3.820313-8.53125-8.53125-8.53125zm0 0"/><path d="m42.667969 443.734375c-4.714844 0-8.535157 3.820313-8.535157 8.53125v17.066406c0 4.714844 3.820313 8.535157 8.535157 8.535157 4.710937 0 8.53125-3.820313 8.53125-8.535157v-17.066406c0-4.710937-3.820313-8.53125-8.53125-8.53125zm0 0"/><path d="m511.640625 177.417969c-.070313-.554688-.195313-1.097657-.371094-1.628907l-.019531-.089843-76.800781-170.667969c-.398438-.855469-.941407-1.636719-1.601563-2.316406-.1875-.199219-.398437-.339844-.605468-.523438-.546876-.484375-1.15625-.894531-1.8125-1.222656-.257813-.136719-.527344-.261719-.800782-.371094-.945312-.375-1.945312-.5781248-2.960937-.597656h-338.308594c-10.480469-.0351562-19.914063 6.351562-23.777344 16.089844l-63.972656 159.9375c-.160156.546875-.261719 1.105468-.304687 1.671875-.148438.492187-.2500005.992187-.304688 1.5v307.199219c.015625 14.132812 11.46875 25.585937 25.601562 25.601562h460.796876c14.132812-.015625 25.585937-11.46875 25.601562-25.601562v-307.199219l-.019531-.085938c-.054688-.574219-.167969-1.144531-.339844-1.695312zm-21.371094-6.75h-119.261719l56.117188-140.3125zm-409.835937-148.234375c1.285156-3.25 4.429687-5.378906 7.925781-5.367188h325.699219l-61.4375 153.601563h-331.480469zm-63.367188 463.964844v-298.664063h332.800782v307.199219h-324.265626c-4.710937-.003906-8.53125-3.824219-8.535156-8.535156zm477.867188 0c-.003906 4.710937-3.824219 8.53125-8.535156 8.535156h-119.464844v-307.199219h128zm0 0"/><path d="m141.226562 128h131.273438c19.289062.011719 36.730469-11.484375 44.316406-29.21875 4.519532-10.546875 3.4375-22.660156-2.878906-32.238281s-17.023438-15.34375-28.496094-15.34375h-131.273437c-19.292969-.011719-36.730469 11.484375-44.316407 29.222656-4.523437 10.546875-3.441406 22.65625 2.875 32.238281 6.320313 9.578125 17.027344 15.339844 28.5 15.339844zm-15.691406-40.855469c4.902344-11.457031 16.167969-18.882812 28.632813-18.878906h131.273437c5.734375.003906 11.085938 2.882813 14.246094 7.671875s3.699219 10.84375 1.445312 16.117188c-4.90625 11.457031-16.167968 18.886718-28.632812 18.878906h-131.273438c-5.734374 0-11.089843-2.882813-14.246093-7.671875-3.160157-4.789063-3.703125-10.84375-1.445313-16.117188zm0 0"/></svg>